<svg width="72" height="72" viewBox="0 0 72 72" fill="none" xmlns="http://www.w3.org/2000/svg">
<g clip-path="url(#clip0_44_352)">
<path d="M16.1805 28.7496V41.4124H15.5454V28.7223H13.0069V43.95H18.719V31.2872H19.3541V43.95H25.0663V31.2599H25.7014V43.95H28.2399V49.6602H40.9344V50.2951H28.2671V56.0052H40.9344V56.6401H28.2399V59.1777H43.4729V53.4676H30.8056V52.8327H43.4729V47.1226H30.7784V46.4876H43.4729V43.95H49.185V31.2599H49.8202V43.9228H55.5323V31.2599H56.1675V43.95H58.7059V28.7223H52.9938V41.3852H52.3587V28.7223H46.6466V41.4124H46.0114V28.7223H43.4729V23.0122H30.7784V22.3773H43.4457V16.6672H30.7784V16.0322H43.4729V13.4946H28.2399V19.2048H40.9072V19.8397H28.2399V25.5498H40.9344V26.1847H28.2399V28.7223H22.5278V41.4124H21.8926V28.7496H16.1805ZM28.2378 40.7775H30.7763V38.2399H28.2378V37.605H30.7763V35.0674H28.2378V34.4325H30.7763V31.8949H28.2378V31.2599H30.7763V28.7223H31.4114V31.2599H33.9499V28.7223H34.5851V31.2599H37.1236V28.7223H37.7587V31.2599H40.2972V28.7223H40.9323V31.2599H43.4708V31.8949H40.9323V34.4325H43.4708V35.0674H40.9323V37.605H43.4708V38.2399H40.9323V40.7775H43.4708V41.4124H40.9323V43.95H40.2972V41.4124H37.7587V43.95H37.1236V41.4124H34.5851V43.95H33.9499V41.4124H31.4114V43.95H30.7763V41.4124H28.2378V40.7775Z" fill="#461220"/>
<path d="M20.795 8.52179L18.8957 9.646L19.938 11.4058L21.8373 10.2816L20.795 8.52179Z" fill="#461220"/>
<path d="M24.8377 2.03833L22.6811 2.81152L24.8529 8.86495L27.0095 8.09176L24.8377 2.03833Z" fill="#461220"/>
<path d="M35.0378 6.72852L38.5448 0L35.8092 0.217928L33.3756 4.97881L30.2229 0.66007L27.4496 0.880093L31.9837 6.97159L35.0378 6.72852Z" fill="#461220"/>
<path d="M40.6829 7.02189L41.6325 6.0936L45.7536 7.18534L46.1183 8.46147L48.8077 9.17393L46.5438 1.92154L45.8794 1.74552L43.5819 1.13574L38.0228 6.31572L40.685 7.02189H40.6829ZM44.6112 3.17672L45.2505 5.42305L42.9405 4.81118L44.6091 3.17672H44.6112Z" fill="#461220"/>
<path d="M52.2451 9.282L51.1204 10.9929L52.9651 12.2047L54.0898 10.4937L52.2451 9.282Z" fill="#461220"/>
<path d="M60.062 9.68578L55.5721 14.2915L57.213 15.89L61.7028 11.2842L60.062 9.68578Z" fill="#461220"/>
<path d="M60.2928 19.7286L61.5002 21.6774L65.3069 19.3158L67.2962 22.5198L68.9563 21.4909L63.7599 13.1174L62.0997 14.1463L64.0995 17.367L60.2928 19.7286Z" fill="#461220"/>
<path d="M65.6045 34.8495L67.3632 34.5059L66.1307 28.2132L66.835 28.0749L68.0319 34.1937L69.4573 33.915L68.2604 27.7962L68.927 27.6663L70.1574 33.959L71.9182 33.6153L70.2476 25.0742L63.9339 26.3084L65.6045 34.8495Z" fill="#461220"/>
<path d="M65.6548 36.5112L65.2775 38.7722L66.9629 39.053L66.6275 41.0626L64.59 42.9024L64.1183 45.7292L65.9986 43.9669L66.3361 43.5457L66.3109 43.8097C66.2774 44.2749 66.3193 44.6898 66.4346 45.0544C66.5499 45.4169 66.749 45.7166 67.0362 45.9534C67.3213 46.1881 67.7007 46.3452 68.1724 46.4248C68.6126 46.4982 68.992 46.4898 69.3106 46.3997C69.6292 46.3096 69.8954 46.1545 70.1092 45.9345C70.3251 45.7166 70.497 45.4442 70.627 45.1173C70.757 44.7904 70.8555 44.4342 70.9205 44.0423L71.9979 37.5694L65.6527 36.5133L65.6548 36.5112ZM69.036 43.4807C68.9962 43.7154 68.9312 43.8789 68.8389 43.969C68.7467 44.0591 68.5958 44.0863 68.3862 44.0507C68.1996 44.0193 68.0759 43.9459 68.0172 43.8307C67.9565 43.7154 67.946 43.5394 67.9858 43.3047L68.6482 39.3338L69.6984 39.5077L69.036 43.4786V43.4807Z" fill="#461220"/>
<path d="M59.0225 54.4399L61.9509 61.4387L63.5356 59.1987L61.431 54.2827L66.77 54.6243L68.3757 52.3528L60.7917 51.9358L59.0225 54.4399Z" fill="#461220"/>
<path d="M55.5203 58.1326L53.7528 59.5933L57.8518 64.5498L59.6193 63.0892L55.5203 58.1326Z" fill="#461220"/>
<path d="M51.5516 66.2834L49.6127 62.2476L47.5458 63.2387L49.4869 67.2767L46.0848 68.909L46.9316 70.6692L55.8153 66.4008L54.9705 64.6427L51.5516 66.2834Z" fill="#461220"/>
<path d="M41.5235 66.3235L37.2871 66.8117L36.4821 65.7556L33.7172 66.0741L38.4735 72.0001L39.9387 71.8304L41.5193 71.6481L44.8019 64.7959L42.0664 65.1102L41.5235 66.3214V66.3235ZM38.4001 68.2681L40.773 67.9936L39.8172 70.1247L38.4001 68.2681Z" fill="#461220"/>
<path d="M23.6304 65.2652L29.833 66.8975L29.6506 67.5911L23.622 66.0028L23.251 67.4088L29.2817 68.9951L29.1098 69.651L22.9051 68.0186L22.4502 69.7515L30.8685 71.9665L32.5077 65.7492L24.0873 63.5322L23.6304 65.2652Z" fill="#461220"/>
<path d="M17.7296 60.9212L14.4784 58.1657L14.6985 56.856L12.5772 55.0581L11.5039 62.5787L13.3108 64.1105L13.8433 64.561L21.0898 62.2728L18.9894 60.4916L17.7338 60.9233L17.7296 60.9212ZM13.7867 62.2749L14.1745 59.972L15.996 61.5163L13.7867 62.2749Z" fill="#461220"/>
<path d="M10.8939 51.9171L9.21905 52.8265L6.24036 47.3511L4.66612 48.2081L7.64481 53.6836L6.95726 54.0565L3.89263 48.4239L2.17794 49.3564L6.33888 57.0028L11.9881 53.9287L10.8939 51.9171Z" fill="#461220"/>
<path d="M7.02644 42.6154L5.33691 42.8543L5.04973 40.8384L6.43741 38.4706L6.03494 35.6333L4.77303 37.8796L4.57809 38.3846L4.52149 38.1269C4.41249 37.6722 4.24898 37.2887 4.02888 36.9765C3.81088 36.6643 3.52789 36.4401 3.18622 36.3018C2.84244 36.1635 2.43368 36.1278 1.95994 36.1949C1.51765 36.2577 1.1592 36.3793 0.8825 36.5616C0.605803 36.7439 0.39828 36.9723 0.259931 37.2447C0.121583 37.5192 0.0377351 37.8293 0.0104846 38.1793C-0.0167659 38.5292 -0.00209252 38.9001 0.0545047 39.292L0.976829 45.79L7.34716 44.8869L7.02434 42.6175L7.02644 42.6154ZM2.5909 43.2461L2.02492 39.2605C1.99139 39.0238 2.00396 38.8498 2.06475 38.7367C2.12554 38.6235 2.26179 38.5523 2.47351 38.5208C2.66007 38.4936 2.80052 38.5271 2.89275 38.6193C2.98498 38.7115 3.04787 38.875 3.08141 39.1118L3.64738 43.0994L2.5909 43.2482V43.2461Z" fill="#461220"/>
<path d="M0.278918 31.4307L0.0471725 33.7114L6.44745 34.3613L6.6792 32.0806L0.278918 31.4307Z" fill="#461220"/>
<path d="M2.27646 28.9926C2.60766 29.2965 3.0248 29.5375 3.5216 29.7135C4.02049 29.8895 4.49214 29.9649 4.93863 29.9356C5.38512 29.9084 5.80645 29.7575 6.20263 29.4893C6.59881 29.219 6.97403 28.8103 7.33038 28.2571C7.68673 27.706 8.01793 26.9978 8.32398 26.1323C8.49796 25.6399 8.65308 25.137 8.78933 24.6215C8.92558 24.106 9.04087 23.5968 9.1352 23.0939C9.22953 22.591 9.30499 22.1133 9.3595 21.6585L7.4289 21.405C7.37021 21.778 7.30103 22.1866 7.21928 22.6308C7.13753 23.0751 7.03901 23.5319 6.92372 24.0013C6.80843 24.4706 6.66798 24.9358 6.50239 25.3989C6.30954 25.9438 6.12717 26.3796 5.95318 26.7044C5.7813 27.0292 5.60941 27.266 5.43752 27.4127C5.26563 27.5594 5.08746 27.639 4.90299 27.6536C4.71853 27.6683 4.5131 27.6348 4.28671 27.5552C4.05613 27.4734 3.87167 27.3687 3.73751 27.2408C3.60335 27.113 3.51531 26.9391 3.47339 26.717C3.43146 26.4949 3.44823 26.2036 3.5237 25.8432C3.59916 25.4828 3.73332 25.0301 3.92617 24.4853C4.08967 24.0222 4.27413 23.5738 4.47956 23.1358C4.68499 22.6979 4.89461 22.2809 5.10842 21.8828C5.32223 21.4846 5.52556 21.1242 5.71422 20.7973L4.06242 19.781C3.81297 20.1666 3.56772 20.5836 3.32666 21.0362C3.08559 21.4888 2.85711 21.9561 2.63701 22.4422C2.419 22.9284 2.22196 23.4166 2.04588 23.9091C1.73984 24.7745 1.54908 25.533 1.47362 26.1826C1.40026 26.8343 1.4317 27.3875 1.56795 27.8464C1.7063 28.3053 1.94107 28.6867 2.27227 28.9926H2.27646Z" fill="#461220"/>
<path d="M11.921 18.809L11.5165 17.5454L14.3442 14.354L15.6481 14.6034L17.4927 12.5205L9.99464 11.2842L9.53767 11.7997L7.96134 13.5787L10.0932 20.8709L11.9189 18.809H11.921ZM10.961 15.7978L10.2504 13.5724L12.5457 14.0083L10.961 15.7957V15.7978Z" fill="#461220"/>
</g>
<defs>
<clipPath id="clip0_44_352">
<rect width="72" height="72" fill="white"/>
</clipPath>
</defs>
</svg>
